<svg xmlns="http://www.w3.org/2000/svg" xmlns:xlink="http://www.w3.org/1999/xlink" width="318" height="269" viewBox="0 0 318 269">
  <defs>
    <clipPath id="clip-icoMovie">
      <rect width="318" height="269"/>
    </clipPath>
  </defs>
  <g id="icoMovie" clip-path="url(#clip-icoMovie)">
    <g id="로그인" transform="translate(-1210 -30)">
      <g id="ico_마이페이지" transform="translate(1646.156 -571.447)">
        <rect id="사각형_4463" data-name="사각형 4463" width="40" height="40" transform="translate(-296.156 631.447)" fill="none"/>
        <rect id="사각형_1402" data-name="사각형 1402" width="32" height="32" transform="translate(-292.156 635.447)" fill="none" opacity="0.3"/>
      </g>
      <g id="그룹_18945" data-name="그룹 18945" transform="translate(1875.265 -812.932)">
        <path id="패스_11345" data-name="패스 11345" d="M-513.265,900.162v1.924a1.928,1.928,0,0,0,2,1.846h16a1.928,1.928,0,0,0,2-1.846V881.778a1.927,1.927,0,0,0-2-1.846h-16a1.928,1.928,0,0,0-2,1.846V883.7" transform="translate(0 1)" fill="none" stroke="#191919" stroke-linecap="round" stroke-linejoin="round" stroke-width="2"/>
        <g id="그룹_18946" data-name="그룹 18946" transform="translate(-1)">
          <path id="패스_11346" data-name="패스 11346" d="M-505.738,888.018l4.945,4.945-5.132,5.132" fill="none" stroke="#191919" stroke-linecap="round" stroke-linejoin="round" stroke-width="2"/>
          <path id="패스_11347" data-name="패스 11347" d="M12.471,0H-3" transform="translate(-513.265 892.963)" fill="none" stroke="#191919" stroke-linecap="round" stroke-width="2"/>
        </g>
      </g>
    </g>
    <g id="그룹_21175" data-name="그룹 21175" transform="translate(8 -26)">
      <rect id="사각형_24188" data-name="사각형 24188" width="23" height="23" transform="translate(22 26)" fill="none"/>
      <g id="그룹_21173" data-name="그룹 21173" transform="translate(-154.269 -61)">
        <path id="타원_984" data-name="타원 984" d="M11.5,7A4.5,4.5,0,1,0,16,11.5,4.505,4.505,0,0,0,11.5,7m0-7A11.5,11.5,0,1,1,0,11.5,11.5,11.5,0,0,1,11.5,0Z" transform="translate(176.269 87)" fill="#fc4357"/>
      </g>
    </g>
    <g id="그룹_21176" data-name="그룹 21176" transform="translate(-22 -26)">
      <rect id="사각형_24188-2" data-name="사각형 24188" width="23" height="23" transform="translate(22 26)" fill="none"/>
      <g id="그룹_21173-2" data-name="그룹 21173" transform="translate(-154.269 -61)">
        <g id="타원_984-2" data-name="타원 984" transform="translate(176.269 87)" fill="none" stroke="#dedede" stroke-width="1">
          <circle cx="11.5" cy="11.5" r="11.5" stroke="none"/>
          <circle cx="11.5" cy="11.5" r="11" fill="none"/>
        </g>
      </g>
    </g>
    <g id="그룹_21202" data-name="그룹 21202" transform="translate(120 30)">
      <rect id="사각형_24200" data-name="사각형 24200" width="40" height="40" transform="translate(100)" fill="none"/>
      <g id="그룹_21177" data-name="그룹 21177" transform="translate(263.906 -883.156)">
        <rect id="사각형_24189" data-name="사각형 24189" width="29" height="27" transform="translate(-157.906 890.156)" fill="none"/>
        <g id="그룹_15192" data-name="그룹 15192" transform="translate(-156.487 891.191)">
          <g id="그룹_15191" data-name="그룹 15191" transform="translate(7.628)">
            <path id="패스_10777" data-name="패스 10777" d="M-139.939,891.191a6.555,6.555,0,0,1,6.548,6.548v.694a6.555,6.555,0,0,1-6.548,6.548,6.555,6.555,0,0,1-6.548-6.548v-.694A6.555,6.555,0,0,1-139.939,891.191Zm0,11.789a4.553,4.553,0,0,0,4.548-4.548v-.694a4.553,4.553,0,0,0-4.548-4.548,4.553,4.553,0,0,0-4.548,4.548v.694A4.553,4.553,0,0,0-139.939,902.98Z" transform="translate(145.487 -892.191)" fill="#191919"/>
          </g>
          <path id="패스_10778" data-name="패스 10778" d="M-130.136,925.512a1,1,0,0,1-1-1v-2.774a4.553,4.553,0,0,0-4.548-4.548h-15.256a4.553,4.553,0,0,0-4.548,4.548v2.774a1,1,0,0,1-1,1,1,1,0,0,1-1-1v-2.774a6.555,6.555,0,0,1,6.548-6.548h15.256a6.555,6.555,0,0,1,6.548,6.548v2.774A1,1,0,0,1-130.136,925.512Z" transform="translate(156.487 -899.548)" fill="#191919"/>
        </g>
      </g>
    </g>
    <g id="그룹_21203" data-name="그룹 21203" transform="translate(80 30)">
      <rect id="사각형_24200-2" data-name="사각형 24200" width="40" height="40" transform="translate(100)" fill="none"/>
      <g id="그룹_21177-2" data-name="그룹 21177" transform="translate(263.906 -883.156)">
        <rect id="사각형_24189-2" data-name="사각형 24189" width="29" height="27" transform="translate(-157.906 890.156)" fill="none"/>
        <g id="그룹_15192-2" data-name="그룹 15192" transform="translate(-156.487 891.191)">
          <g id="그룹_15191-2" data-name="그룹 15191" transform="translate(7.628)">
            <path id="패스_10777-2" data-name="패스 10777" d="M-139.939,891.191a6.555,6.555,0,0,1,6.548,6.548v.694a6.555,6.555,0,0,1-6.548,6.548,6.555,6.555,0,0,1-6.548-6.548v-.694A6.555,6.555,0,0,1-139.939,891.191Zm0,11.789a4.553,4.553,0,0,0,4.548-4.548v-.694a4.553,4.553,0,0,0-4.548-4.548,4.553,4.553,0,0,0-4.548,4.548v.694A4.553,4.553,0,0,0-139.939,902.98Z" transform="translate(145.487 -892.191)" fill="#191919"/>
          </g>
          <path id="패스_10778-2" data-name="패스 10778" d="M-130.136,925.512a1,1,0,0,1-1-1v-2.774a4.553,4.553,0,0,0-4.548-4.548h-15.256a4.553,4.553,0,0,0-4.548,4.548v2.774a1,1,0,0,1-1,1,1,1,0,0,1-1-1v-2.774a6.555,6.555,0,0,1,6.548-6.548h15.256a6.555,6.555,0,0,1,6.548,6.548v2.774A1,1,0,0,1-130.136,925.512Z" transform="translate(156.487 -899.548)" fill="#191919"/>
          <g id="타원_990" data-name="타원 990" transform="translate(15.581 12.965)" fill="#fff" stroke="#191919" stroke-width="2">
            <circle cx="8" cy="8" r="8" stroke="none"/>
            <circle cx="8" cy="8" r="7" fill="none"/>
          </g>
          <g id="그룹_21205" data-name="그룹 21205" transform="translate(-187.507 -37.5)">
            <path id="패스_11408_-_윤곽선" data-name="패스 11408 - 윤곽선" d="M16286.773-23421.734a1.031,1.031,0,0,1-1-1.059v-5.684a1.031,1.031,0,0,1,1-1.059,1.031,1.031,0,0,1,1,1.059v5.684A1.031,1.031,0,0,1,16286.773-23421.734Z" transform="translate(-16075.682 23484)" fill="#191919"/>
            <path id="패스_11408_-_윤곽선-2" data-name="패스 11408 - 윤곽선" d="M16286.773-23421.586a1.043,1.043,0,0,1-1-1.08v-5.795a1.041,1.041,0,0,1,1-1.078,1.041,1.041,0,0,1,1,1.078v5.795A1.043,1.043,0,0,1,16286.773-23421.586Z" transform="translate(23636.627 16345.236) rotate(-90)" fill="#191919"/>
          </g>
        </g>
      </g>
    </g>
    <g id="그룹_21179" data-name="그룹 21179" transform="translate(0 -23)" opacity="0.8">
      <g id="타원_63" data-name="타원 63" transform="translate(0 46)" fill="#fff" stroke="#dbdbdb" stroke-width="1" opacity="0.8">
        <circle cx="15" cy="15" r="15" stroke="none"/>
        <circle cx="15" cy="15" r="14.5" fill="none"/>
      </g>
      <g id="_" data-name="&lt;" transform="translate(9 56)">
        <rect id="사각형_192" data-name="사각형 192" width="10" height="10" transform="translate(0 0)" fill="rgba(0,0,0,0)" opacity="0.2"/>
        <path id="패스_82" data-name="패스 82" d="M4.459,8.514,0,4.257,4.459,0" transform="translate(3.03 0.836)" fill="none" stroke="#505050" stroke-linecap="round" stroke-linejoin="round" stroke-miterlimit="10" stroke-width="1"/>
      </g>
    </g>
    <g id="그룹_21181" data-name="그룹 21181" transform="translate(-90 -23)" opacity="0.8">
      <g id="타원_128" data-name="타원 128" transform="translate(120 46)" fill="#fff" stroke="#dbdbdb" stroke-width="1" opacity="0.8">
        <circle cx="15" cy="15" r="15" stroke="none"/>
        <circle cx="15" cy="15" r="14.5" fill="none"/>
      </g>
      <g id="_2" data-name="&lt;" transform="translate(131 56)">
        <rect id="사각형_192-2" data-name="사각형 192" width="10" height="10" transform="translate(0 0)" fill="rgba(0,0,0,0)" opacity="0.2"/>
        <path id="패스_82-2" data-name="패스 82" d="M0,8.514,4.459,4.257,0,0" transform="translate(2.511 0.836)" fill="none" stroke="#505050" stroke-linecap="round" stroke-linejoin="round" stroke-miterlimit="10" stroke-width="1"/>
      </g>
    </g>
    <g id="그룹_5205" data-name="그룹 5205" transform="translate(-1261 -2533)" opacity="0.8">
      <g id="타원_152" data-name="타원 152" transform="translate(1321 2556)" fill="#fff" stroke="#dbdbdb" stroke-width="1" opacity="0.8">
        <circle cx="15" cy="15" r="15" stroke="none"/>
        <circle cx="15" cy="15" r="14.5" fill="none"/>
      </g>
      <g id="_3" data-name="&lt;" transform="translate(1332 2566)">
        <g id="그룹_21178" data-name="그룹 21178" transform="translate(-1)">
          <rect id="사각형_192-3" data-name="사각형 192" width="10" height="10" fill="rgba(0,0,0,0)" opacity="0.2"/>
          <line id="선_180" data-name="선 180" y2="8" transform="translate(3.5 1)" fill="none" stroke="#505050" stroke-linecap="round" stroke-width="1"/>
          <line id="선_181" data-name="선 181" y2="8" transform="translate(6.5 1)" fill="none" stroke="#505050" stroke-linecap="round" stroke-width="1"/>
        </g>
      </g>
    </g>
    <g id="그룹_21182" data-name="그룹 21182" transform="translate(102.49 -43.469)">
      <path id="패스_11391" data-name="패스 11391" d="M16264.559-23425.535l-13.051-13.047,1.953-1.949,13.047,13.047Z" transform="translate(-16143.998 23484)" fill="#343434"/>
      <path id="패스_11391-2" data-name="패스 11391" d="M16253.459-23425.535l13.051-13.047-1.953-1.949-13.047,13.047Z" transform="translate(-16144 23484)" fill="#343434"/>
    </g>
    <g id="그룹_21183" data-name="그룹 21183" transform="translate(-32.313 -50.143)">
      <path id="패스_11391-3" data-name="패스 11391" d="M93.754,25.686l-4.6,4.052,1.339,5.982h0a.255.255,0,0,1-.379.275L84.84,32.872l-5.275,3.121h0a.255.255,0,0,1-.379-.275l1.339-5.982-4.6-4.051a.255.255,0,0,1,.145-.445l6.1-.574,2.432-5.626a.255.255,0,0,1,.468,0l2.432,5.626,6.1.574a.255.255,0,0,1,.145.445Z" transform="translate(16.474 31.256)" fill="#ffc608"/>
    </g>
    <g id="그룹_21204" data-name="그룹 21204" transform="translate(-12.313 -50.143)">
      <path id="패스_11391-4" data-name="패스 11391" d="M93.754,25.686l-4.6,4.052,1.339,5.982h0a.255.255,0,0,1-.379.275L84.84,32.872l-5.275,3.121h0a.255.255,0,0,1-.379-.275l1.339-5.982-4.6-4.051a.255.255,0,0,1,.145-.445l6.1-.574,2.432-5.626a.255.255,0,0,1,.468,0l2.432,5.626,6.1.574a.255.255,0,0,1,.145.445Z" transform="translate(16.474 31.256)" fill="#d9d9d9"/>
    </g>
    <g id="그룹_21185" data-name="그룹 21185" transform="translate(-123 16)">
      <rect id="사각형_24190" data-name="사각형 24190" width="20" height="20" transform="translate(123 44)" fill="#259c56"/>
      <path id="패스_11392" data-name="패스 11392" d="M4.316-6.747h.052l.923,2.9h-1.9ZM.169-.546h2.21l.546-1.729h2.86L6.37-.546h2.5L5.837-9.282H3.224ZM9.763-.559h2.223v-9.3H9.763Zm3.679,0h2.223v-9.3H13.442Z" transform="translate(124.831 58.854)" fill="#fff"/>
    </g>
    <g id="그룹_21186" data-name="그룹 21186" transform="translate(0 -10)">
      <rect id="사각형_24190-2" data-name="사각형 24190" width="20" height="20" transform="translate(30 70)" fill="#dd742f"/>
      <path id="패스_11393" data-name="패스 11393" d="M1.521-.468H3.965V-9.542H2.743L.169-8.45v1.4l1.352-.182Zm6.422.052c2.171,0,3.471-1.261,3.471-3.042a2.7,2.7,0,0,0-2.951-2.99,3.739,3.739,0,0,0-.91.13l.1-1.5h3.237V-9.581H5.915L5.577-4.212a4.719,4.719,0,0,1,1.781-.533c1.027,0,1.586.377,1.586,1.235S8.281-2.327,7.228-2.327a3.312,3.312,0,0,1-1.547-.416l-.4,1.768A6.282,6.282,0,0,0,7.943-.416Z" transform="translate(33.831 84.58)" fill="#fff"/>
    </g>
    <g id="그룹_21187" data-name="그룹 21187" transform="translate(30 -10)">
      <rect id="사각형_24190-3" data-name="사각형 24190" width="20" height="20" transform="translate(30 70)" fill="#d82b37"/>
      <path id="패스_11394" data-name="패스 11394" d="M1.521-.468H3.965V-9.542H2.743L.169-8.45v1.4l1.352-.182ZM8.4-9.7c-2.249,0-3.185,1.313-3.185,3.224A2.5,2.5,0,0,0,7.852-3.692a4.1,4.1,0,0,0,1.989-.533C9.789-2.236,8.814-2.236,7.722-2.236a5.651,5.651,0,0,1-1.846-.455L5.616-.962a5.008,5.008,0,0,0,2.236.6c2.223,0,4.355-.624,4.355-4.628v-.637C12.207-8.19,10.842-9.7,8.4-9.7Zm.091,1.651c.936,0,1.339.806,1.339,2.093v.169a1.666,1.666,0,0,1-1.17.52c-.689,0-1.2-.442-1.2-1.391C7.462-7.579,7.787-8.047,8.489-8.047Z" transform="translate(33.831 84.697)" fill="#fff"/>
    </g>
    <g id="그룹_21189" data-name="그룹 21189" transform="translate(20 -70)">
      <rect id="사각형_24191" data-name="사각형 24191" width="15" height="15" transform="translate(90 70)" fill="none"/>
      <g id="그룹_21188" data-name="그룹 21188" transform="translate(174.42)">
        <path id="패스_11395" data-name="패스 11395" d="M341.564,83.139a.314.314,0,0,0,.313-.313V79.063a.314.314,0,0,0-.627,0v3.762a.313.313,0,0,0,.314.313Z" transform="translate(-418.774 -8.75)" fill="#b54d15"/>
        <path id="패스_11397" data-name="패스 11397" d="M432.826,271.25h-3.762a.314.314,0,1,0,0,.627h3.762a.314.314,0,0,0,0-.627Z" transform="translate(-503.139 -194.353)" fill="#b54d15"/>
        <path id="패스_11398" data-name="패스 11398" d="M153.139,271.564a.314.314,0,0,0-.314-.314h-3.762a.314.314,0,1,0,0,.627h3.762a.314.314,0,0,0,.314-.313Z" transform="translate(-233.171 -194.353)" fill="#b54d15"/>
        <path id="패스_11399" data-name="패스 11399" d="M294.489,222.429a2.066,2.066,0,1,0,1.458.605,2.063,2.063,0,0,0-1.458-.605Zm0,3.5a1.436,1.436,0,1,1,1.015-.421A1.436,1.436,0,0,1,294.489,225.928Z" transform="translate(-371.699 -147.281)" fill="#b54d15"/>
        <path id="패스_11402" data-name="패스 11402" d="M243.9,174.5a.315.315,0,0,0,.445-.445l-1.361-1.345a.309.309,0,0,0-.43.445Z" transform="translate(-323.525 -99.26)" fill="#b54d15"/>
        <path id="패스_11403" data-name="패스 11403" d="M402.763,173.962a.313.313,0,0,0,.223-.091l1.361-1.361h0a.315.315,0,1,0-.445-.445l-1.361,1.361h0a.313.313,0,0,0,.223.536Z" transform="translate(-477.779 -98.632)" fill="#b54d15"/>
        <path id="패스_11396" data-name="패스 11396" d="M341.564,358.75a.314.314,0,0,0-.314.313v3.762a.314.314,0,0,0,.627,0v-3.762a.313.313,0,0,0-.313-.313Z" transform="translate(-418.774 -278.718)" fill="#b54d15"/>
        <path id="패스_11400" data-name="패스 11400" d="M403,332.557a.315.315,0,1,0-.445.445l1.361,1.361h0a.315.315,0,1,0,.445-.445Z" transform="translate(-477.794 -253.375)" fill="#b54d15"/>
        <path id="패스_11401" data-name="패스 11401" d="M243.849,332.557l-1.345,1.361a.315.315,0,0,0,.445.445L244.31,333h0a.315.315,0,0,0-.445-.445Z" transform="translate(-323.476 -253.374)" fill="#b54d15"/>
      </g>
    </g>
    <g id="그룹_21190" data-name="그룹 21190" transform="translate(-21 -50)">
      <path id="패스_11404" data-name="패스 11404" d="M126.024,55.923a7.129,7.129,0,0,1,3.227-5.888.276.276,0,0,0,0-.47,7.515,7.515,0,1,0,.534,13.024.274.274,0,0,0,0-.47,7.127,7.127,0,0,1-3.761-6.195.273.273,0,0,0-.545,0h0a7.678,7.678,0,0,0,4.032,6.669v-.47a6.987,6.987,0,1,1-.534-12.086v-.47a7.7,7.7,0,0,0-3.5,6.357.273.273,0,0,0,.545,0Z" transform="translate(14.404 21.251)" fill="#1a0071"/>
      <rect id="사각형_24192" data-name="사각형 24192" width="15" height="15" transform="translate(131 70)" fill="none"/>
    </g>
    <g id="그룹_21191" data-name="그룹 21191" transform="translate(-3 -28)">
      <path id="합치기_23" data-name="합치기 23" d="M-16062.348,23547.557c-4.024-.148-8.858-2.281-10.383-7.812l-.006-.018c-.484-1.891.106-3.357,1.625-4.025l.035-.018a3.4,3.4,0,0,1,1.253-.254c.786,0,2.229.344,3,2.66a5.12,5.12,0,0,0,2.1,2.76,6.268,6.268,0,0,0,2.942.8c.143.006.284.012.426.012,1.8,0,3.629-.607,3.629-1.961,0-1.187-.4-2.182-5.4-3.2a16.027,16.027,0,0,1-5.757-2.158,7.3,7.3,0,0,1-3.314-6.145,7.421,7.421,0,0,1,1.985-5.6c1.176-1.205,3.486-2.635,7.813-2.635a12.4,12.4,0,0,1,4.887,1,10.438,10.438,0,0,1,4.563,3.746,3.778,3.778,0,0,1,.745,2.152,2.707,2.707,0,0,1-1.383,2.334l-.024.018a3.069,3.069,0,0,1-1.589.461,3.8,3.8,0,0,1-2.86-1.555,5.866,5.866,0,0,0-4.35-2.109,4.4,4.4,0,0,0-3.056.869,1.524,1.524,0,0,0-.378,1.205c.018.432.177,1.064,1.259,1.631a11.483,11.483,0,0,0,2.725.84c.136.029.26.053.372.082,4.29.887,7.115,2.258,8.634,4.2a6.115,6.115,0,0,1,1.069,2.068v-13.611a3,3,0,0,1,3.156-3.113h13.64a3.3,3.3,0,0,1,2.293.814,2.929,2.929,0,0,1,.91,2.211,2.965,2.965,0,0,1-1.046,2.311,3.334,3.334,0,0,1-2.157.756h-10.254a1.4,1.4,0,0,0-.171.006,2.015,2.015,0,0,0-.012.225v4.227a1.352,1.352,0,0,0,.183.012h9.728a2.929,2.929,0,0,1,3.227,2.725,13.955,13.955,0,0,1,3.753-9.539,12.792,12.792,0,0,1,4.326-2.92,14.67,14.67,0,0,1,5.549-1.045,13.709,13.709,0,0,1,9.567,3.775,13.065,13.065,0,0,1,3,4.373,14.464,14.464,0,0,1,1.105,5.656,13.8,13.8,0,0,1-4,9.969,13.682,13.682,0,0,1-9.674,3.836,13.841,13.841,0,0,1-9.474-3.551,13.474,13.474,0,0,1-4.154-9.846,2.779,2.779,0,0,1-1.04,1.967,3.524,3.524,0,0,1-2.187.691h-9.81a.316.316,0,0,0-.083.006,1.325,1.325,0,0,0-.018.266v4.1c.059.006.147.012.271.012h10.123c2.027,0,3.245,1.117,3.245,2.979a3.139,3.139,0,0,1-1,2.348,3.275,3.275,0,0,1-2.246.855h-13.6a3.044,3.044,0,0,1-3.156-3.2v-2.264a6.6,6.6,0,0,1-.6,1.318,7.515,7.515,0,0,1-2.382,2.447,12.6,12.6,0,0,1-6.914,1.891C-16061.9,23547.574-16062.129,23547.568-16062.348,23547.557Zm38.52-19.49a7.859,7.859,0,0,0-2.146,5.732,8.311,8.311,0,0,0,1.861,5.5,7.008,7.008,0,0,0,5.455,2.258,7.4,7.4,0,0,0,5-1.826,7.732,7.732,0,0,0,2.316-5.934,8.033,8.033,0,0,0-2.074-5.555,7.105,7.105,0,0,0-5.242-2.2A7.251,7.251,0,0,0-16023.828,23528.066Z" transform="translate(16076 -23404)" fill="#ed3124"/>
      <text id="see_other" data-name="see other" transform="translate(76 141)" fill="gray" font-size="11" font-family="Roboto-Light, Roboto" font-weight="300" letter-spacing="0.062em"><tspan x="0" y="0">SEE OTHER</tspan></text>
      <g id="그룹_21193" data-name="그룹 21193" transform="translate(-1 2)">
        <path id="합치기_19" data-name="합치기 19" d="M-16152.144,23488.238c-.551.662-1.148,1.045-1.409.883-.3-.187-.054-1,.548-1.828.052-.07.1-.137.156-.2a1.729,1.729,0,0,1-.587-1.287,1.875,1.875,0,0,1,1.939-1.8,1.881,1.881,0,0,1,1.946,1.8,1.729,1.729,0,0,1-.574,1.273c.048.061.1.123.144.188.6.826.849,1.646.548,1.828-.262.162-.862-.225-1.415-.891,0,1-.288,1.8-.648,1.8S-16152.137,23489.217-16152.144,23488.238Z" transform="translate(-25655.922 12378.911) rotate(-150)" fill="#ed3124"/>
        <circle id="타원_989" data-name="타원 989" cx="1" cy="1" r="1" transform="translate(73 115)" fill="#fff"/>
      </g>
    </g>
    <g id="그룹_21192" data-name="그룹 21192" transform="translate(0 -30)">
      <g id="사각형_24193" data-name="사각형 24193" transform="translate(0 160)" fill="#343433" stroke="rgba(0,0,0,0.2)" stroke-width="1">
        <rect width="105" height="105" rx="20" stroke="none"/>
        <rect x="0.5" y="0.5" width="104" height="104" rx="19.5" fill="none"/>
      </g>
    </g>
    <g id="그룹_21195" data-name="그룹 21195" transform="translate(120 -30)">
      <g id="사각형_24193-2" data-name="사각형 24193" transform="translate(0 160)" fill="#ed3023" stroke="rgba(0,0,0,0.2)" stroke-width="1">
        <rect width="105" height="105" rx="20" stroke="none"/>
        <rect x="0.5" y="0.5" width="104" height="104" rx="19.5" fill="none"/>
      </g>
    </g>
    <path id="합치기_22" data-name="합치기 22" d="M-16146.063,23510.68a8.108,8.108,0,0,1-7.809-5.887v-.012a3.23,3.23,0,0,1,.012-1.863,2.39,2.39,0,0,1,1.322-1.391l.035-.012a2.892,2.892,0,0,1,1.014-.2c.648,0,1.828.273,2.441,2.113a3.4,3.4,0,0,0,3.434,2.406,2.274,2.274,0,0,0,.283.012c1.145,0,2.371-.367,2.371-1.156,0-.742-.271-1.355-3.705-2.062a11.86,11.86,0,0,1-4.293-1.617,5.537,5.537,0,0,1-2.523-4.684,5.684,5.684,0,0,1,1.521-4.27c.885-.91,2.629-2,5.873-2a9.452,9.452,0,0,1,3.67.754,7.934,7.934,0,0,1,3.432,2.82,3.553,3.553,0,0,1,.342.625v-1.5a2.444,2.444,0,0,1,2.572-2.535h9.92a2.434,2.434,0,0,1,2.607,2.477,2.5,2.5,0,0,1-2.607,2.5h-7.314v2.7h6.938a2.723,2.723,0,0,1,1.852.625,2.469,2.469,0,0,1,.307.352,10.235,10.235,0,0,1,2.713-5.848,10.124,10.124,0,0,1,7.383-2.973,10.275,10.275,0,0,1,7.148,2.828,10.291,10.291,0,0,1,3.068,7.492,10.332,10.332,0,0,1-2.984,7.441,10.237,10.237,0,0,1-7.232,2.867,10.367,10.367,0,0,1-7.076-2.652,9.728,9.728,0,0,1-3.02-6.125,2.647,2.647,0,0,1-2.158.969h-6.937v2.641h7.279a2.364,2.364,0,0,1,2.643,2.441,2.567,2.567,0,0,1-.814,1.9,2.709,2.709,0,0,1-1.828.7h-9.885a2.473,2.473,0,0,1-2.572-2.6v-.434a5.844,5.844,0,0,1-1.734,1.758,9.537,9.537,0,0,1-5.189,1.414C-16145.733,23510.691-16145.9,23510.691-16146.063,23510.68Zm28.217-14.25a5.424,5.424,0,0,0-1.475,3.965,5.757,5.757,0,0,0,1.285,3.832,4.837,4.837,0,0,0,3.762,1.547c2.324,0,5.049-1.4,5.049-5.379a5.049,5.049,0,0,0-5.049-5.367A4.983,4.983,0,0,0-16117.847,23496.43Zm-30.268-.883a.785.785,0,0,0-.2.672c.047.906,1.4,1.273,2.678,1.543.094.027.188.039.271.063,3.184.66,5.283,1.7,6.439,3.16a2.822,2.822,0,0,1,.283.414v-5.062a2.406,2.406,0,0,1-.885.934l-.023.023a2.513,2.513,0,0,1-1.3.375,3.045,3.045,0,0,1-2.289-1.227,3.939,3.939,0,0,0-2.961-1.437A2.936,2.936,0,0,0-16148.114,23495.547Z" transform="translate(16303.999 -23490.059)" fill="#fff"/>
    <g id="그룹_21198" data-name="그룹 21198" transform="translate(0 -35.003)">
      <text id="좌석선택" transform="translate(22 244)" fill="#fff" font-size="17" font-family="NotoSansKR-Bold, Noto Sans KR" font-weight="700" letter-spacing="-0.025em"><tspan x="0" y="0">좌석선택</tspan></text>
      <g id="사각형_24194" data-name="사각형 24194" transform="translate(30 196)" fill="none" stroke="#fff" stroke-width="2">
        <rect width="25" height="10" rx="5" stroke="none"/>
        <rect x="1" y="1" width="23" height="8" rx="4" fill="none"/>
      </g>
      <g id="합치기_21" data-name="합치기 21" transform="translate(16207.074 -23300.07)" fill="none">
        <path d="M-16150.466,23513.8a5,5,0,0,1,0-7.07l6.063-6.062-6.062-6.061a4.994,4.994,0,0,1,0-7.068,5,5,0,0,1,7.076,0l9.188,9.188a4.985,4.985,0,0,1,1.448,3.939,4.985,4.985,0,0,1-1.448,3.939l-9.194,9.2a4.976,4.976,0,0,1-3.533,1.465A4.987,4.987,0,0,1-16150.466,23513.8Z" stroke="none"/>
        <path d="M -16146.9287109375 23513.265625 C -16146.1279296875 23513.265625 -16145.3759765625 23512.953125 -16144.8095703125 23512.38671875 L -16135.615234375 23503.19140625 C -16134.9921875 23502.568359375 -16134.6748046875 23501.70703125 -16134.74609375 23500.828125 L -16134.759765625 23500.666015625 L -16134.74609375 23500.50390625 C -16134.6748046875 23499.625 -16134.9921875 23498.763671875 -16135.615234375 23498.140625 L -16144.8046875 23488.953125 C -16145.37109375 23488.384765625 -16146.1259765625 23488.072265625 -16146.927734375 23488.072265625 C -16147.73046875 23488.072265625 -16148.484375 23488.384765625 -16149.0537109375 23488.955078125 C -16149.619140625 23489.51953125 -16149.9306640625 23490.26953125 -16149.931640625 23491.068359375 C -16149.931640625 23491.87109375 -16149.6201171875 23492.625 -16149.0517578125 23493.193359375 L -16141.57421875 23500.66796875 L -16142.9892578125 23502.08203125 L -16149.0517578125 23508.14453125 C -16149.619140625 23508.7109375 -16149.931640625 23509.46484375 -16149.931640625 23510.265625 C -16149.931640625 23511.06640625 -16149.619140625 23511.8203125 -16149.0517578125 23512.38671875 C -16148.484375 23512.953125 -16147.73046875 23513.265625 -16146.9287109375 23513.265625 M -16146.9287109375 23515.265625 C -16148.208984375 23515.265625 -16149.4892578125 23514.77734375 -16150.4658203125 23513.80078125 C -16152.419921875 23511.84765625 -16152.419921875 23508.68359375 -16150.4658203125 23506.73046875 L -16144.4033203125 23500.66796875 L -16150.4658203125 23494.607421875 C -16152.419921875 23492.654296875 -16152.419921875 23489.486328125 -16150.4658203125 23487.5390625 C -16148.513671875 23485.583984375 -16145.34375 23485.580078125 -16143.3896484375 23487.5390625 L -16134.201171875 23496.7265625 C -16133.12109375 23497.806640625 -16132.638671875 23499.255859375 -16132.7529296875 23500.666015625 C -16132.638671875 23502.076171875 -16133.12109375 23503.525390625 -16134.201171875 23504.60546875 L -16143.3955078125 23513.80078125 C -16144.3701171875 23514.77734375 -16145.6494140625 23515.265625 -16146.9287109375 23515.265625 Z" stroke="none" fill="#fff"/>
      </g>
    </g>
    <g id="그룹_21199" data-name="그룹 21199" transform="translate(120 -35.003)">
      <text id="좌석선택-2" data-name="좌석선택" transform="translate(22 244)" fill="#fff" font-size="17" font-family="NotoSansKR-Bold, Noto Sans KR" font-weight="700" letter-spacing="-0.025em"><tspan x="0" y="0">좌석선택</tspan></text>
      <g id="사각형_24194-2" data-name="사각형 24194" transform="translate(30 196)" fill="#fff" stroke="#fff" stroke-width="2">
        <rect width="25" height="10" rx="5" stroke="none"/>
        <rect x="1" y="1" width="23" height="8" rx="4" fill="none"/>
      </g>
      <g id="합치기_21-2" data-name="합치기 21" transform="translate(16207.074 -23300.07)" fill="#fff">
        <path d="M -16146.9287109375 23514.265625 C -16147.998046875 23514.265625 -16149.0029296875 23513.849609375 -16149.7587890625 23513.09375 C -16150.5146484375 23512.337890625 -16150.931640625 23511.333984375 -16150.931640625 23510.265625 C -16150.931640625 23509.197265625 -16150.5146484375 23508.193359375 -16149.7587890625 23507.4375 L -16143.6962890625 23501.375 L -16142.9892578125 23500.66796875 L -16143.6962890625 23499.9609375 L -16149.7587890625 23493.900390625 C -16150.515625 23493.14453125 -16150.9326171875 23492.138671875 -16150.931640625 23491.068359375 C -16150.9306640625 23490.001953125 -16150.5146484375 23489 -16149.759765625 23488.248046875 C -16149.0029296875 23487.490234375 -16147.9970703125 23487.072265625 -16146.927734375 23487.072265625 C -16145.8583984375 23487.072265625 -16144.853515625 23487.490234375 -16144.0966796875 23488.24609375 L -16134.908203125 23497.43359375 C -16134.0771484375 23498.265625 -16133.654296875 23499.4140625 -16133.75 23500.5859375 L -16133.755859375 23500.666015625 L -16133.75 23500.74609375 C -16133.654296875 23501.91796875 -16134.0771484375 23503.06640625 -16134.908203125 23503.8984375 L -16144.1025390625 23513.09375 C -16144.857421875 23513.849609375 -16145.8603515625 23514.265625 -16146.9287109375 23514.265625 Z" stroke="none"/>
        <path d="M -16146.9287109375 23513.265625 C -16146.1279296875 23513.265625 -16145.3759765625 23512.953125 -16144.8095703125 23512.38671875 L -16135.615234375 23503.19140625 C -16134.9921875 23502.568359375 -16134.6748046875 23501.70703125 -16134.74609375 23500.828125 L -16134.759765625 23500.666015625 L -16134.74609375 23500.50390625 C -16134.6748046875 23499.625 -16134.9921875 23498.763671875 -16135.615234375 23498.140625 L -16144.8046875 23488.953125 C -16145.37109375 23488.384765625 -16146.1259765625 23488.072265625 -16146.927734375 23488.072265625 C -16147.73046875 23488.072265625 -16148.484375 23488.384765625 -16149.0537109375 23488.955078125 C -16149.619140625 23489.51953125 -16149.9306640625 23490.26953125 -16149.931640625 23491.068359375 C -16149.931640625 23491.87109375 -16149.6201171875 23492.625 -16149.0517578125 23493.193359375 L -16141.57421875 23500.66796875 L -16142.9892578125 23502.08203125 L -16149.0517578125 23508.14453125 C -16149.619140625 23508.7109375 -16149.931640625 23509.46484375 -16149.931640625 23510.265625 C -16149.931640625 23511.06640625 -16149.619140625 23511.8203125 -16149.0517578125 23512.38671875 C -16148.484375 23512.953125 -16147.73046875 23513.265625 -16146.9287109375 23513.265625 M -16146.9287109375 23515.265625 C -16148.208984375 23515.265625 -16149.4892578125 23514.77734375 -16150.4658203125 23513.80078125 C -16152.419921875 23511.84765625 -16152.419921875 23508.68359375 -16150.4658203125 23506.73046875 L -16144.4033203125 23500.66796875 L -16150.4658203125 23494.607421875 C -16152.419921875 23492.654296875 -16152.419921875 23489.486328125 -16150.4658203125 23487.5390625 C -16148.513671875 23485.583984375 -16145.34375 23485.580078125 -16143.3896484375 23487.5390625 L -16134.201171875 23496.7265625 C -16133.12109375 23497.806640625 -16132.638671875 23499.255859375 -16132.7529296875 23500.666015625 C -16132.638671875 23502.076171875 -16133.12109375 23503.525390625 -16134.201171875 23504.60546875 L -16143.3955078125 23513.80078125 C -16144.3701171875 23514.77734375 -16145.6494140625 23515.265625 -16146.9287109375 23515.265625 Z" stroke="none" fill="#fff"/>
      </g>
    </g>
    <path id="패스_11408" data-name="패스 11408" d="M16286.773-23428.537v5.363" transform="translate(-16076 23484)" fill="#191919"/>
    <path id="패스_11409" data-name="패스 11409" d="M16320.215-23471.811l-1.414-1.414,3.293-3.293-3.293-3.293,1.414-1.414,4.707,4.707Z" transform="translate(-16088.801 23481.225)" fill="#919191"/>
    <path id="패스_11409-2" data-name="패스 11409" d="M16320.215-23471.811l-1.414-1.414,3.293-3.293-3.293-3.293,1.414-1.414,4.707,4.707Z" transform="translate(-16078.801 23481.225)" fill="#fff"/>
    <g id="그룹_21206" data-name="그룹 21206" transform="translate(-32.313 -50.143)">
      <path id="패스_11391-5" data-name="패스 11391" d="M93.754,25.686l-4.6,4.052,1.339,5.982h0a.255.255,0,0,1-.379.275L84.84,32.872l-5.275,3.121h0a.255.255,0,0,1-.379-.275l1.339-5.982-4.6-4.051a.255.255,0,0,1,.145-.445l6.1-.574,2.432-5.626a.255.255,0,0,1,.468,0l2.432,5.626,6.1.574a.255.255,0,0,1,.145.445Z" transform="translate(16.474 31.256)" fill="#ffc608"/>
    </g>
    <g id="그룹_21207" data-name="그룹 21207" transform="translate(7.687 -10.143)">
      <path id="패스_11391-6" data-name="패스 11391" d="M91.764,24.93l-4.088,3.6,1.19,5.317h0a.227.227,0,0,1-.337.245L83.84,31.318l-4.689,2.775h0a.227.227,0,0,1-.337-.245l1.19-5.317-4.088-3.6a.227.227,0,0,1,.129-.4l5.425-.511,2.162-5a.227.227,0,0,1,.416,0l2.162,5,5.425.511a.227.227,0,0,1,.129.4Z" transform="translate(16.474 31.256)" fill="#ffc608"/>
    </g>
    <path id="패스_11409-3" data-name="패스 11409" d="M16334.41-23473.057l-.414-.414,3.586-3.586-3.586-3.586.414-.414,4,4Z" transform="translate(-16083.996 23481.057)" fill="#707070"/>
    <g id="그룹_21208" data-name="그룹 21208">
      <g id="타원_991" data-name="타원 991" transform="translate(260)" fill="none" stroke="#fff" stroke-width="1" opacity="0.5">
        <circle cx="15" cy="15" r="15" stroke="none"/>
        <circle cx="15" cy="15" r="14.5" fill="none"/>
      </g>
      <g id="다각형_5" data-name="다각형 5" transform="translate(282 7) rotate(90)" fill="none">
        <path d="M8,0l8,11H0Z" stroke="none"/>
        <path d="M 7.999999523162842 1.700187683105469 L 1.963771820068359 10 L 14.03622627258301 10 L 7.999999523162842 1.700187683105469 M 7.999999523162842 0 L 16 11 L -9.5367431640625e-07 11 L 7.999999523162842 0 Z" stroke="none" fill="#fff"/>
      </g>
    </g>
    <g id="그룹_21209" data-name="그룹 21209" transform="translate(0 30)">
      <g id="타원_991-2" data-name="타원 991" transform="translate(260)" fill="none" stroke="#fff" stroke-width="1" opacity="0.5">
        <circle cx="15" cy="15" r="15" stroke="none"/>
        <circle cx="15" cy="15" r="14.5" fill="none"/>
      </g>
      <path id="패스_11409-4" data-name="패스 11409" d="M272.286-22.564" fill="none" stroke="#707070" stroke-width="1"/>
    </g>
    <g id="그룹_21210" data-name="그룹 21210" transform="translate(2 1)">
      <g id="사각형_24201" data-name="사각형 24201" transform="translate(268 38)" fill="none" stroke="#fff" stroke-width="1">
        <rect width="4" height="13" rx="2" stroke="none"/>
        <rect x="0.5" y="0.5" width="3" height="12" rx="1.5" fill="none"/>
      </g>
      <g id="사각형_24202" data-name="사각형 24202" transform="translate(275 38)" fill="none" stroke="#fff" stroke-width="1">
        <rect width="4" height="13" rx="2" stroke="none"/>
        <rect x="0.5" y="0.5" width="3" height="12" rx="1.5" fill="none"/>
      </g>
    </g>
    <g id="사각형_24203" data-name="사각형 24203" transform="translate(140 70)" fill="#fff" stroke="#dedede" stroke-width="1">
      <rect width="22" height="22" stroke="none"/>
      <rect x="0.5" y="0.5" width="21" height="21" fill="none"/>
    </g>
    <rect id="사각형_24204" data-name="사각형 24204" width="22" height="22" transform="translate(170 70)" fill="#ff4357"/>
    <path id="패스_11410" data-name="패스 11410" d="M16278.71-23399.621l-4.67-4.67,1.414-1.414,3.256,3.256,5.831-5.832,1.414,1.414Z" transform="translate(-16099.04 23485.281)" fill="#fff"/>
  </g>
</svg>
